<mxfile host="Electron" modified="2024-01-02T14:42:57.554Z" agent="Mozilla/5.0 (Windows NT 10.0; Win64; x64) AppleWebKit/537.36 (KHTML, like Gecko) draw.io/22.1.16 Chrome/120.0.6099.109 Electron/28.1.0 Safari/537.36" etag="LvVCUf3P5zkeMOP7NgLR" version="22.1.16" type="device">
  <diagram name="Page-1" id="BkD6KCw2Wf4b2zmkbOGA">
    <mxGraphModel dx="1022" dy="640" grid="1" gridSize="10" guides="1" tooltips="1" connect="1" arrows="1" fold="1" page="1" pageScale="1" pageWidth="850" pageHeight="1100" math="0" shadow="0">
      <root>
        <mxCell id="0" />
        <mxCell id="1" parent="0" />
        <mxCell id="Q2nwv0zUKFHxlfl4ZdvR-3" value="" style="edgeStyle=orthogonalEdgeStyle;rounded=0;orthogonalLoop=1;jettySize=auto;html=1;" edge="1" parent="1" source="Q2nwv0zUKFHxlfl4ZdvR-1" target="Q2nwv0zUKFHxlfl4ZdvR-2">
          <mxGeometry relative="1" as="geometry" />
        </mxCell>
        <mxCell id="Q2nwv0zUKFHxlfl4ZdvR-1" value="&lt;font style=&quot;font-size: 18px;&quot;&gt;Start&lt;/font&gt;" style="strokeWidth=2;html=1;shape=mxgraph.flowchart.start_2;whiteSpace=wrap;" vertex="1" parent="1">
          <mxGeometry x="375" y="120" width="195" height="100" as="geometry" />
        </mxCell>
        <mxCell id="Q2nwv0zUKFHxlfl4ZdvR-5" value="" style="edgeStyle=orthogonalEdgeStyle;rounded=0;orthogonalLoop=1;jettySize=auto;html=1;" edge="1" parent="1" source="Q2nwv0zUKFHxlfl4ZdvR-2" target="Q2nwv0zUKFHxlfl4ZdvR-4">
          <mxGeometry relative="1" as="geometry" />
        </mxCell>
        <mxCell id="Q2nwv0zUKFHxlfl4ZdvR-2" value="&lt;font style=&quot;font-size: 18px;&quot;&gt;Enter number1, number 2&lt;/font&gt;" style="shape=parallelogram;perimeter=parallelogramPerimeter;whiteSpace=wrap;html=1;fixedSize=1;strokeWidth=2;" vertex="1" parent="1">
          <mxGeometry x="297.5" y="320" width="350" height="140" as="geometry" />
        </mxCell>
        <mxCell id="Q2nwv0zUKFHxlfl4ZdvR-7" value="" style="edgeStyle=orthogonalEdgeStyle;rounded=0;orthogonalLoop=1;jettySize=auto;html=1;" edge="1" parent="1" source="Q2nwv0zUKFHxlfl4ZdvR-4" target="Q2nwv0zUKFHxlfl4ZdvR-6">
          <mxGeometry relative="1" as="geometry" />
        </mxCell>
        <mxCell id="Q2nwv0zUKFHxlfl4ZdvR-4" value="&lt;font style=&quot;font-size: 18px;&quot;&gt;sum = number1 + number 2&lt;/font&gt;" style="whiteSpace=wrap;html=1;strokeWidth=2;" vertex="1" parent="1">
          <mxGeometry x="292.5" y="580" width="360" height="170" as="geometry" />
        </mxCell>
        <mxCell id="Q2nwv0zUKFHxlfl4ZdvR-9" value="" style="edgeStyle=orthogonalEdgeStyle;rounded=0;orthogonalLoop=1;jettySize=auto;html=1;" edge="1" parent="1" source="Q2nwv0zUKFHxlfl4ZdvR-6" target="Q2nwv0zUKFHxlfl4ZdvR-8">
          <mxGeometry relative="1" as="geometry" />
        </mxCell>
        <mxCell id="Q2nwv0zUKFHxlfl4ZdvR-6" value="&lt;font style=&quot;font-size: 18px;&quot;&gt;Output sum&lt;/font&gt;" style="shape=parallelogram;perimeter=parallelogramPerimeter;whiteSpace=wrap;html=1;fixedSize=1;strokeWidth=2;" vertex="1" parent="1">
          <mxGeometry x="287.5" y="890" width="370" height="155" as="geometry" />
        </mxCell>
        <mxCell id="Q2nwv0zUKFHxlfl4ZdvR-8" value="&lt;font style=&quot;font-size: 18px;&quot;&gt;Stop&lt;/font&gt;" style="ellipse;whiteSpace=wrap;html=1;strokeWidth=2;" vertex="1" parent="1">
          <mxGeometry x="403.75" y="1162.5" width="137.5" height="80" as="geometry" />
        </mxCell>
      </root>
    </mxGraphModel>
  </diagram>
</mxfile>
